<svg xmlns="http://www.w3.org/2000/svg" viewBox="0 0 44 44"><defs><style>.cls-1{fill:#b3b3b3;}.cls-2{fill:#fff;}</style></defs><title>Asset 3</title><g id="Layer_2" data-name="Layer 2"><g id="Layer_1-2" data-name="Layer 1"><circle class="cls-1" cx="22" cy="22" r="22"/><path class="cls-2" d="M22,35.63c-2,0-4,.12-6,0-3.11-.23-5.68-1.44-6.92-4.56a10.57,10.57,0,0,1-.73-4c0-3.62-.09-7.25.06-10.87.15-3.83,2-6.82,6.24-7.54A13.83,13.83,0,0,1,17,8.37c3.65,0,7.3-.11,10.94,0s6.75,2,7.49,6.22A14.07,14.07,0,0,1,35.63,17c0,3.67.12,7.34,0,11s-2,6.77-6.21,7.39a62.54,62.54,0,0,1-6.86.3H22Zm0-2.53c1.8,0,3.6.08,5.39,0a9.14,9.14,0,0,0,3.15-.7A4.53,4.53,0,0,0,33,28c.09-4,.07-8,0-12a6.36,6.36,0,0,0-.69-2.5A4.56,4.56,0,0,0,28,11c-4-.09-8-.06-12.08,0a6,6,0,0,0-2.49.7A4.55,4.55,0,0,0,11,16c-.09,4-.08,8,0,12a4.86,4.86,0,0,0,1.77,3.88,6.19,6.19,0,0,0,3.87,1.19C18.38,33.12,20.16,33.1,21.94,33.1Z"/><path class="cls-2" d="M29.06,22a7.07,7.07,0,1,1-7.08-7A7.09,7.09,0,0,1,29.06,22ZM22,17.5A4.51,4.51,0,1,0,26.5,22,4.53,4.53,0,0,0,22,17.5Z"/><path class="cls-2" d="M27.64,14.69a1.58,1.58,0,0,1,1.67-1.63,1.64,1.64,0,0,1,1.63,1.7,1.57,1.57,0,0,1-1.69,1.6A1.55,1.55,0,0,1,27.64,14.69Z"/></g></g></svg>