<svg xmlns="http://www.w3.org/2000/svg" viewBox="0 0 44 44"><defs><style>.cls-1{fill:#b3b3b3;}.cls-2{fill:#f2f2f2;}</style></defs><title>Asset 4</title><g id="Layer_2" data-name="Layer 2"><g id="Layer_1-2" data-name="Layer 1"><circle class="cls-1" cx="22" cy="22" r="22"/><path class="cls-2" d="M30.64,33.29v-.87c0-2.82,0-5.64,0-8.45a6.85,6.85,0,0,0-.4-2.29,3,3,0,0,0-3.18-2,3.37,3.37,0,0,0-2.94,2.41,7.64,7.64,0,0,0-.29,2c0,2.77,0,5.54,0,8.32v.87H18.12V32.5c0-5.5,0-11,0-16.49,0-.66.14-.92.85-.89,1.4.05,2.8,0,4.2,0,.5,0,.67.17.64.67s0,.92,0,1.34a22.87,22.87,0,0,1,2.64-1.83,6.72,6.72,0,0,1,8.77,2.25,6.42,6.42,0,0,1,1,3c.12,4.24.05,8.48.05,12.77Z"/><path class="cls-2" d="M9.06,15.13c1.78,0,3.48,0,5.18,0,.16,0,.33.27.45.45s0,.23,0,.35V33.27H9.06Z"/><path class="cls-2" d="M9,10a2.83,2.83,0,1,1,2.82,2.86A2.88,2.88,0,0,1,9,10Z"/></g></g></svg>