<svg xmlns="http://www.w3.org/2000/svg" xmlns:xlink="http://www.w3.org/1999/xlink" viewBox="0 0 310.48 61.16"><defs><style>.cls-1{fill:none;clip-rule:evenodd;}.cls-2{clip-path:url(#clip-path);}.cls-3{fill:url(#linear-gradient);}.cls-4{fill:#00adee;}.cls-10,.cls-4,.cls-7{fill-rule:evenodd;}.cls-5{clip-path:url(#clip-path-2);}.cls-6{fill:url(#linear-gradient-2);}.cls-7{fill:#00bff2;}.cls-8{clip-path:url(#clip-path-3);}.cls-9{fill:url(#linear-gradient-3);}.cls-10{fill:#8dd7f7;}.cls-11{font-size:24.43px;fill:#fff;font-family:CenturyGothic-Bold, Century Gothic;font-weight:700;}</style><clipPath id="clip-path"><path class="cls-1" d="M46.79,61.16H0V55.09c16.49-4.93,32.44-10.4,46.79-17.49Z"/></clipPath><linearGradient id="linear-gradient" x1="1729.95" y1="-800.44" x2="1730.34" y2="-800.44" gradientTransform="translate(-211318.78 48820.03) scale(122.15 60.93)" gradientUnits="userSpaceOnUse"><stop offset="0" stop-color="#6dcef5"/><stop offset="1" stop-color="#034ea1"/></linearGradient><clipPath id="clip-path-2"><path class="cls-1" d="M0,48.59V52.9C16.49,48,32.44,42.5,46.79,35.41V18.89C33.54,29.39,17.26,39.61,0,48.59"/></clipPath><linearGradient id="linear-gradient-2" x1="1729.95" y1="-805.1" x2="1730.34" y2="-805.1" gradientTransform="translate(-211318.78 70850.77) scale(122.15 87.96)" gradientUnits="userSpaceOnUse"><stop offset="0" stop-color="#00adee"/><stop offset="1" stop-color="#034ea1"/></linearGradient><clipPath id="clip-path-3"><path class="cls-1" d="M46.79,0C35.94,14.28,19.27,28.75,0,42V46.4c17.26-9,33.54-19.2,46.79-29.7V0"/></clipPath><linearGradient id="linear-gradient-3" x1="1729.95" y1="-808.11" x2="1730.34" y2="-808.11" gradientTransform="translate(-211318.78 98816.17) scale(122.15 122.25)" xlink:href="#linear-gradient-2"/></defs><title>Asset 1</title><g id="Layer_2" data-name="Layer 2"><g id="Layer_1-2" data-name="Layer 1"><g class="cls-2"><rect class="cls-3" y="37.6" width="46.79" height="23.56"/></g><polygon class="cls-4" points="46.79 61.16 61.56 61.16 63.25 43.35 46.79 37.6 46.79 61.16"/><g class="cls-5"><rect class="cls-6" y="18.89" width="46.79" height="34.01"/></g><polygon class="cls-7" points="46.79 35.41 63.49 41.25 64.59 29.53 46.79 18.89 46.79 35.41"/><g class="cls-8"><rect class="cls-9" width="46.79" height="46.4"/></g><polygon class="cls-10" points="46.79 16.7 64.86 27.5 65.96 15.91 46.79 0 46.79 16.7"/><text class="cls-11" transform="translate(76.78 39.13) scale(0.99 1)">MODERN STRUCTURE</text></g></g></svg>